<svg xmlns="http://www.w3.org/2000/svg" viewBox="0 0 1000 1500" width="1000" height="1500" style="background-color:white;">
<defs>
<marker id="arrow" markerWidth="10" markerHeight="10" refX="9" refY="3" orient="auto" markerUnits="strokeWidth">
<path d="M0,0 L0,6 L9,3 z" fill="#000"/>
</marker>
</defs>
<rect width="1000" height="1500" fill="#fff"/>
<rect x="5" y="5" width="990" height="1490" fill="none" stroke="#000" stroke-width="2"/>
<circle cx="500" cy="50" r="15" fill="none" stroke="#000" stroke-width="2"/>
<line x1="500" y1="65" x2="500" y2="110" stroke="#000" stroke-width="1.5" marker-end="url(#arrow)"/>
<rect x="440.0" y="110.0" width="120" height="40" rx="10" fill="#fff" stroke="#000" stroke-width="1.5"/>
<text x="500" y="128.0" font-family="Arial" font-size="12" text-anchor="middle">Login</text>
<line x1="500" y1="150" x2="500" y2="200" stroke="#000" stroke-width="1.5" marker-end="url(#arrow)"/>
<polygon points="500,200.0 570.0,240 500,280.0 430.0,240" fill="#fff" stroke="#000" stroke-width="1.5"/>
<text x="500" y="244" font-family="Arial" font-size="12" text-anchor="middle">Authenticated?</text>
<line x1="430" y1="240" x2="310" y2="240" stroke="#000" stroke-width="1.5" marker-end="url(#arrow)"/>
<text x="370.0" y="230.0" font-family="Arial" font-size="12" text-anchor="middle" fill="#000">No</text>
<rect x="190.0" y="220.0" width="120" height="40" rx="10" fill="#fff" stroke="#000" stroke-width="1.5"/>
<text x="250" y="238.0" font-family="Arial" font-size="12" text-anchor="middle">Register</text>
<path d="M 250,220 L 250,130 L 440,130 " fill="none" stroke="#000" stroke-width="1.5" marker-end="url(#arrow)"/>
<line x1="500" y1="280" x2="500" y2="480" stroke="#000" stroke-width="1.5" marker-end="url(#arrow)"/>
<text x="520" y="330.0" font-family="Arial" font-size="12" text-anchor="middle" fill="#000">Yes</text>
<rect x="430.0" y="480.0" width="140" height="40" rx="10" fill="#fff" stroke="#000" stroke-width="1.5"/>
<text x="500" y="498.0" font-family="Arial" font-size="12" text-anchor="middle">Dashboard Page</text>
<line x1="500" y1="520" x2="500" y2="570" stroke="#000" stroke-width="1.5" marker-end="url(#arrow)"/>
<rect x="410.0" y="570.0" width="180" height="40" rx="10" fill="#fff" stroke="#000" stroke-width="1.5"/>
<text x="500" y="581.0" font-family="Arial" font-size="12" text-anchor="middle">Search Repository</text>
<text x="500" y="597.0" font-family="Arial" font-size="12" text-anchor="middle">&amp; Branch Name</text>
<line x1="500" y1="610" x2="500" y2="660" stroke="#000" stroke-width="1.5" marker-end="url(#arrow)"/>
<rect x="300" y="657" width="400" height="6" fill="#000"/>
<line x1="350" y1="663" x2="350" y2="700" stroke="#000" stroke-width="1.5" marker-end="url(#arrow)"/>
<line x1="500" y1="663" x2="500" y2="700" stroke="#000" stroke-width="1.5" marker-end="url(#arrow)"/>
<line x1="650" y1="663" x2="650" y2="700" stroke="#000" stroke-width="1.5" marker-end="url(#arrow)"/>
<rect x="285.0" y="700.0" width="130" height="40" rx="10" fill="#fff" stroke="#000" stroke-width="1.5"/>
<text x="350" y="711.0" font-family="Arial" font-size="12" text-anchor="middle">Fetch Commits</text>
<text x="350" y="727.0" font-family="Arial" font-size="12" text-anchor="middle">via GitHub API</text>
<rect x="435.0" y="700.0" width="130" height="40" rx="10" fill="#fff" stroke="#000" stroke-width="1.5"/>
<text x="500" y="711.0" font-family="Arial" font-size="12" text-anchor="middle">Extract Commit</text>
<text x="500" y="727.0" font-family="Arial" font-size="12" text-anchor="middle">Features</text>
<rect x="585.0" y="700.0" width="130" height="40" rx="10" fill="#fff" stroke="#000" stroke-width="1.5"/>
<text x="650" y="711.0" font-family="Arial" font-size="12" text-anchor="middle">Analyze Code</text>
<text x="650" y="727.0" font-family="Arial" font-size="12" text-anchor="middle">Complexity &amp; Churn</text>
<line x1="350" y1="740" x2="350" y2="780" stroke="#000" stroke-width="1.5" marker-end="url(#arrow)"/>
<line x1="500" y1="740" x2="500" y2="780" stroke="#000" stroke-width="1.5" marker-end="url(#arrow)"/>
<line x1="650" y1="740" x2="650" y2="780" stroke="#000" stroke-width="1.5" marker-end="url(#arrow)"/>
<rect x="300" y="777" width="400" height="6" fill="#000"/>
<line x1="500" y1="783" x2="500" y2="830" stroke="#000" stroke-width="1.5" marker-end="url(#arrow)"/>
<rect x="420.0" y="830.0" width="160" height="40" rx="10" fill="#fff" stroke="#000" stroke-width="1.5"/>
<text x="500" y="841.0" font-family="Arial" font-size="12" text-anchor="middle">Calibrated XGBoost</text>
<text x="500" y="857.0" font-family="Arial" font-size="12" text-anchor="middle">Model Predictor</text>
<line x1="500" y1="870" x2="500" y2="920" stroke="#000" stroke-width="1.5" marker-end="url(#arrow)"/>
<rect x="420.0" y="920.0" width="160" height="40" rx="10" fill="#fff" stroke="#000" stroke-width="1.5"/>
<text x="500" y="931.0" font-family="Arial" font-size="12" text-anchor="middle">Calculate Bug</text>
<text x="500" y="947.0" font-family="Arial" font-size="12" text-anchor="middle">Probability</text>
<line x1="500" y1="960" x2="500" y2="1010" stroke="#000" stroke-width="1.5" marker-end="url(#arrow)"/>
<rect x="397" y="1010" width="6" height="140" fill="#000"/>
<line x1="403" y1="1040" x2="480" y2="1040" stroke="#000" stroke-width="1.5" marker-end="url(#arrow)"/>
<line x1="403" y1="1120" x2="480" y2="1120" stroke="#000" stroke-width="1.5" marker-end="url(#arrow)"/>
<rect x="480.0" y="1020.0" width="140" height="40" rx="10" fill="#fff" stroke="#000" stroke-width="1.5"/>
<text x="550" y="1031.0" font-family="Arial" font-size="12" text-anchor="middle">Categorize Risk</text>
<text x="550" y="1047.0" font-family="Arial" font-size="12" text-anchor="middle">(Low, Medium, High)</text>
<rect x="480.0" y="1100.0" width="140" height="40" rx="10" fill="#fff" stroke="#000" stroke-width="1.5"/>
<text x="550" y="1111.0" font-family="Arial" font-size="12" text-anchor="middle">Extract Top 3</text>
<text x="550" y="1127.0" font-family="Arial" font-size="12" text-anchor="middle">Risk Factors</text>
<line x1="620" y1="1040" x2="700" y2="1040" stroke="#000" stroke-width="1.5" marker-end="url(#arrow)"/>
<line x1="620" y1="1120" x2="700" y2="1120" stroke="#000" stroke-width="1.5" marker-end="url(#arrow)"/>
<rect x="697" y="1010" width="6" height="140" fill="#000"/>
<line x1="703" y1="1080" x2="770" y2="1080" stroke="#000" stroke-width="1.5" marker-end="url(#arrow)"/>
<rect x="770.0" y="1060.0" width="120" height="40" rx="10" fill="#fff" stroke="#000" stroke-width="1.5"/>
<text x="830" y="1071.0" font-family="Arial" font-size="12" text-anchor="middle">Display Results on</text>
<text x="830" y="1087.0" font-family="Arial" font-size="12" text-anchor="middle">Explorer Dashboard</text>
<path d="M 830,1100 L 830,1200 L 700,1200 " fill="none" stroke="#000" stroke-width="1.5" marker-end="url(#arrow)"/>
<rect x="580.0" y="1180.0" width="120" height="40" rx="10" fill="#fff" stroke="#000" stroke-width="1.5"/>
<text x="640" y="1191.0" font-family="Arial" font-size="12" text-anchor="middle">Save Search</text>
<text x="640" y="1207.0" font-family="Arial" font-size="12" text-anchor="middle">to History</text>
<line x1="580" y1="1200" x2="500" y2="1200" stroke="#000" stroke-width="1.5" marker-end="url(#arrow)"/>
<polygon points="430,1160.0 500.0,1200 430,1240.0 360.0,1200" fill="#fff" stroke="#000" stroke-width="1.5"/>
<text x="430" y="1204" font-family="Arial" font-size="12" text-anchor="middle">Search Again?</text>
<line x1="360" y1="1200" x2="240" y2="1200" stroke="#000" stroke-width="1.5" marker-end="url(#arrow)"/>
<text x="290.0" y="1190.0" font-family="Arial" font-size="12" text-anchor="middle" fill="#000">Yes</text>
<rect x="100.0" y="1180.0" width="140" height="40" rx="10" fill="#fff" stroke="#000" stroke-width="1.5"/>
<text x="170" y="1191.0" font-family="Arial" font-size="12" text-anchor="middle">Refresh Explorer</text>
<text x="170" y="1207.0" font-family="Arial" font-size="12" text-anchor="middle">for New Search</text>
<path d="M 170,1180 L 170,590 L 410,590 " fill="none" stroke="#000" stroke-width="1.5" marker-end="url(#arrow)"/>
<line x1="430" y1="1240" x2="430" y2="1310" stroke="#000" stroke-width="1.5" marker-end="url(#arrow)"/>
<text x="445.0" y="1265.0" font-family="Arial" font-size="12" text-anchor="middle" fill="#000">No</text>
<circle cx="430" cy="1325" r="15" fill="none" stroke="#000" stroke-width="2"/>
<circle cx="430" cy="1325" r="9" fill="#000"/>
</svg>